<?xml version="1.0" encoding="UTF-8" standalone="no"?>
<!-- Created with Inkscape (http://www.inkscape.org/) -->

<svg
   width="167.92506mm"
   height="30.823446mm"
   viewBox="0 0 167.92506 30.823446"
   version="1.1"
   id="svg5"
   xml:space="preserve"
   inkscape:version="1.2.1 (9c6d41e410, 2022-07-14)"
   sodipodi:docname="logo.svg"
   inkscape:export-filename="logo_new.png"
   inkscape:export-xdpi="302.51999"
   inkscape:export-ydpi="302.51999"
   xmlns:inkscape="http://www.inkscape.org/namespaces/inkscape"
   xmlns:sodipodi="http://sodipodi.sourceforge.net/DTD/sodipodi-0.dtd"
   xmlns="http://www.w3.org/2000/svg"
   xmlns:svg="http://www.w3.org/2000/svg"><sodipodi:namedview
     id="namedview7"
     pagecolor="#ffffff"
     bordercolor="#666666"
     borderopacity="1.0"
     inkscape:showpageshadow="2"
     inkscape:pageopacity="0.0"
     inkscape:pagecheckerboard="0"
     inkscape:deskcolor="#d1d1d1"
     inkscape:document-units="mm"
     showgrid="false"
     inkscape:zoom="1.0973349"
     inkscape:cx="351.3057"
     inkscape:cy="30.528511"
     inkscape:window-width="959"
     inkscape:window-height="1010"
     inkscape:window-x="0"
     inkscape:window-y="0"
     inkscape:window-maximized="1"
     inkscape:current-layer="layer1" /><defs
     id="defs2" /><g
     inkscape:label="Layer 1"
     inkscape:groupmode="layer"
     id="layer1"
     transform="translate(-17.758716,-122.146)"><text
       xml:space="preserve"
       style="font-size:41.8323px;line-height:1.25;font-family:sans-serif;-inkscape-font-specification:sans-serif;stroke-width:0.261451"
       x="14.277313"
       y="150.14746"
       id="text92"
       transform="scale(0.98428663,1.0159642)"><tspan
         sodipodi:role="line"
         id="tspan90"
         style="font-style:normal;font-variant:normal;font-weight:bold;font-stretch:normal;font-size:41.8323px;font-family:sans-serif;-inkscape-font-specification:'sans-serif Bold';stroke-width:0.261451"
         x="14.277313"
         y="150.14746">KUIBIT</tspan></text><g
       style="clip-rule:evenodd;fill-rule:nonzero;stroke-linecap:round;stroke-linejoin:round;stroke-miterlimit:10"
       id="g247"
       transform="matrix(0.17303575,0,0,0.17665276,140.03097,121.59561)"><g
         clip-path="url(#ArtboardFrame)"
         id="Layer-2"
         transform="matrix(0.8255469,0,0,0.86389991,79.436653,2.4548019)">
<path
   d="m 64.4062,0.8125 c -9.9748,0 -18.0624,7.49184 -18.0624,16.7187 0,0.1068 0.029,0.2063 0.0312,0.3126 V 100.125 H 37.7812 C 37.4971,100.06 37.221,100.028 36.9375,99.9688 V 66.6875 h -0.2187 c 0.0039,-0.1592 0.0312,-0.3084 0.0312,-0.4687 0,-8.9091 -6.1228,-16.125 -13.6562,-16.125 -7.5335,0 -13.62505,7.2159 -13.62505,16.125 0,0.4925 0.08845,0.9561 0.125,1.4374 V 113.25 h 0.1875 c 0.23215,7.351 7.03945,15.256 17.84375,19.5 3.0243,1.188 6.0938,1.944 9.0938,2.375 v 0.063 h 0.3124 c 3.2709,0.443 6.4169,0.404 9.3438,0 v 58 h 36 v -87.157 h 22.344 0.75 v -0.125 c 7.104,-0.673 12.75,-10.5706 12.75,-22.781 0,-0.4489 -0.079,-0.87 -0.094,-1.3125 h 0.094 V 47 c 0.003,-0.1384 0.031,-0.267 0.031,-0.4062 0,-0.1393 -0.028,-0.2679 -0.031,-0.4063 v -0.375 h -0.031 c -0.344,-8.5381 -6.092,-15.3437 -13.219,-15.3437 -7.1278,-1e-4 -12.9069,6.8056 -13.2502,15.3437 h -0.125 V 69.2188 H 82.375 V 18.375 c 0.0156,-0.2848 0.0938,-0.5554 0.0938,-0.8438 0,-9.22686 -8.0877,-16.7187 -18.0626,-16.7187 z"
   fill="#46b94b"
   fill-rule="nonzero"
   opacity="1"
   stroke="none"
   id="path209" />
<path
   d="m 64.3433,0.764975 c -0.2132,0 -0.4135,0.055707 -0.625,0.0625 V 193.14 h 18.5938 v -87.156 h 22.3439 0.75 v -0.125 c 7.105,-0.673 12.75,-10.5712 12.75,-22.7815 0,-0.4489 -0.079,-0.87 -0.094,-1.3125 h 0.094 V 46.9525 c 0.003,-0.1384 0.031,-0.2671 0.031,-0.4063 0,-0.1392 -0.028,-0.2679 -0.031,-0.4062 v -0.375 h -0.031 c -0.344,-8.5381 -6.092,-15.3438 -13.219,-15.3438 -7.1277,0 -12.9069,6.8057 -13.2502,15.3438 h -0.125 V 69.1712 H 82.3121 V 18.3275 c 0.0156,-0.2848 0.0937,-0.5554 0.0937,-0.8438 0,-9.22689 -8.0877,-16.718723 -18.0625,-16.718725 z"
   fill="#000000"
   fill-rule="nonzero"
   opacity="0.2"
   stroke="none"
   id="path211" />
<path
   d="m 32.8452,187.491 h 62.284 c 3.286,0 5.9498,2.445 5.9498,5.461 v 1.771 c 0,3.015 -2.6638,5.46 -5.9498,5.46 h -62.284 c -3.2859,0 -5.9497,-2.445 -5.9497,-5.46 v -1.771 c 0,-3.016 2.6638,-5.461 5.9497,-5.461 z"
   fill="#a27100"
   fill-rule="nonzero"
   opacity="1"
   stroke="#c6b99e"
   stroke-linecap="butt"
   stroke-linejoin="round"
   stroke-width="1.25339"
   id="path213" />
<path
   d="m 124.859,13.4429 c -2.712,0 -5.098,1.0222 -7.094,2.5 -1.801,-1.0653 -3.794,-1.8125 -6.062,-1.8125 -6.54,0 -11.8442,5.1064 -11.8442,11.4063 0,0.2554 0.1391,0.4675 0.1562,0.7187 -3.5238,1.9761 -6,5.5077 -6,9.7188 0,4.2243 2.4891,7.7472 6.031,9.7187 0.75,5.6047 5.541,10 11.563,10 2.493,0 4.654,-0.9195 6.562,-2.1875 1.987,1.4518 4.314,2.4688 7,2.4688 6.54,0 11.844,-5.1065 11.844,-11.4063 0,-0.0213 0,-0.0412 0,-0.0625 3.751,-1.914 6.375,-5.6262 6.375,-10 0,-4.5509 -2.811,-8.3883 -6.812,-10.2187 -0.323,-6.0226 -5.388,-10.8438 -11.719,-10.8438 z m -6.063,20.9688 c 0.215,0.1272 0.401,0.2921 0.625,0.4062 -0.287,0.1585 -0.541,0.3508 -0.812,0.5313 -0.202,-0.1472 -0.414,-0.2716 -0.625,-0.4063 0.276,-0.1717 0.553,-0.3387 0.812,-0.5312 z"
   fill="#ff641a"
   fill-rule="nonzero"
   opacity="1"
   stroke="none"
   id="path215" />
<path
   d="m 107.889,35.3547 c 0,-5.6597 4.583,-10.2478 10.237,-10.2478 5.654,0 10.237,4.5881 10.237,10.2478 0,5.6596 -4.583,10.2477 -10.237,10.2477 -5.654,0 -10.237,-4.5881 -10.237,-10.2477 z"
   fill="#ffd92d"
   fill-rule="nonzero"
   opacity="1"
   stroke="none"
   id="path217" />
<path
   d="m 111.821,24.9376 c 0,-0.2751 0.194,-0.4981 0.434,-0.4981 0.239,0 0.434,0.223 0.434,0.4981 0,0.275 -0.195,0.498 -0.434,0.498 -0.24,0 -0.434,-0.223 -0.434,-0.498 z"
   fill="#ff641a"
   fill-rule="nonzero"
   opacity="1"
   stroke="none"
   id="path219" />
<path
   d="m 105.941,22.0296 c 0,-0.4791 0.223,-0.8676 0.498,-0.8676 0.275,0 0.498,0.3885 0.498,0.8676 0,0.4792 -0.223,0.8676 -0.498,0.8676 -0.275,0 -0.498,-0.3884 -0.498,-0.8676 z"
   fill="#ff641a"
   fill-rule="nonzero"
   opacity="1"
   stroke="none"
   id="path221" />
<path
   d="m 124.819,13.324 c -2.555,0 -4.796,0.9405 -6.719,2.2812 v 37.8125 c 0.012,-0.0077 0.02,-0.0235 0.031,-0.0312 1.987,1.4518 4.315,2.4687 7,2.4687 6.54,0 11.844,-5.1064 11.844,-11.4062 0,-0.0213 0,-0.0412 0,-0.0625 3.751,-1.914 6.375,-5.6262 6.375,-10 0,-4.551 -2.811,-8.3883 -6.812,-10.2188 -0.322,-6.0225 -5.387,-10.8437 -11.719,-10.8437 z"
   fill="#fd0000"
   fill-rule="nonzero"
   opacity="0.4"
   stroke="none"
   id="path223" />
<path
   d="m 63.6892,186.87 v 13.834 h 31.6385 c 3.4872,0 6.3343,-2.675 6.3343,-5.963 v -1.942 c 0,-3.288 -2.8471,-5.929 -6.3343,-5.929 z"
   fill="#000000"
   fill-rule="nonzero"
   opacity="0.2"
   stroke="none"
   id="path225" />
<path
   d="m 119.281,34.9688 -1.875,1.5 30.875,46.9687 c -3.543,1.4655 -6.078,3.4036 -2.781,8.8125 9.2,15.092 21.988,21.215 24.969,22.5 v 35.062 l -7.625,45.25 c 0,0 -0.073,2.749 1.937,3.938 1.833,1.084 5.655,0.671 7.594,-0.031 1.833,-0.665 1.996,-1.018 3.656,-6.844 4.994,-17.524 6.407,-33.847 6.594,-36.063 H 187 c 1.18,4.133 5.508,17.486 13.25,18.563 0,0 4.379,0.896 6.594,-0.469 8.059,-4.966 13.731,-7.271 11.218,-15.437 -1.153,-3.75 -6.999,-5.346 -8.906,-3.438 -2.892,2.895 -3.912,4.055 -5.062,5.344 -3.765,1.234 -5.269,-8.109 -6.313,-9.844 v -33.125 c 0.317,0.222 9.197,6.499 14.375,16.469 2.093,4.029 13.361,-0.953 10.844,-7.719 -1.063,-2.856 -5.276,-9.223 -10.688,-13.531 -7.404,-5.895 -11.982,-10.707 -21.343,-10.156 -4.283,0.252 -6.539,0.751 -7.907,1.219 -0.271,0.03 -0.334,-0.063 -0.718,0.031 -8.288,2.023 -20.293,-9.7156 -23.063,-14.6252 -1.708,-3.0285 -4.509,-8.3651 -8.125,-7 -0.202,0.0763 -0.391,0.1437 -0.594,0.2187 z m 63.469,44.375 c -6.219,0 -11.281,4.5978 -11.281,10.2812 0,5.6834 5.062,10.2812 11.281,10.2812 6.219,1e-4 11.25,-4.5978 11.25,-10.2812 0,-5.6834 -5.031,-10.2812 -11.25,-10.2812 z"
   fill="#000000"
   fill-rule="nonzero"
   opacity="1"
   stroke="none"
   id="path227" />
</g></g></g></svg>
