<?xml version="1.0" encoding="UTF-8" standalone="no"?>
<!DOCTYPE svg PUBLIC "-//W3C//DTD SVG 1.1//EN" "http://www.w3.org/Graphics/SVG/1.1/DTD/svg11.dtd">
<!-- Created with Vectornator (http://vectornator.io/) -->
<svg height="100%" stroke-miterlimit="10" style="fill-rule:nonzero;clip-rule:evenodd;stroke-linecap:round;stroke-linejoin:round;" version="1.1" viewBox="0 0 223 203" width="100%" xml:space="preserve" xmlns="http://www.w3.org/2000/svg" xmlns:xlink="http://www.w3.org/1999/xlink">
<clipPath id="ArtboardFrame">
<rect height="203" width="223" x="0" y="0"/>
</clipPath>
<g clip-path="url(#ArtboardFrame)" id="Layer-2">
<path d="M64.4062 0.8125C54.4314 0.8125 46.3438 8.30434 46.3438 17.5312C46.3438 17.638 46.3728 17.7375 46.375 17.8438L46.375 100.125L37.7812 100.125C37.4971 100.06 37.221 100.028 36.9375 99.9688L36.9375 66.6875L36.7188 66.6875C36.7227 66.5283 36.75 66.3791 36.75 66.2188C36.75 57.3097 30.6272 50.0938 23.0938 50.0938C15.5603 50.0938 9.46875 57.3097 9.46875 66.2188C9.46875 66.7113 9.5572 67.1749 9.59375 67.6562L9.59375 113.25L9.78125 113.25C10.0134 120.601 16.8207 128.506 27.625 132.75C30.6493 133.938 33.7188 134.694 36.7188 135.125L36.7188 135.188L37.0312 135.188C40.3021 135.631 43.4481 135.592 46.375 135.188L46.375 193.188L82.375 193.188L82.375 106.031L104.719 106.031L105.469 106.031L105.469 105.906C112.573 105.233 118.219 95.3354 118.219 83.125C118.219 82.6761 118.14 82.255 118.125 81.8125L118.219 81.8125L118.219 47C118.222 46.8616 118.25 46.733 118.25 46.5938C118.25 46.4545 118.222 46.3259 118.219 46.1875L118.219 45.8125L118.188 45.8125C117.844 37.2744 112.096 30.4688 104.969 30.4688C97.8412 30.4687 92.0621 37.2744 91.7188 45.8125L91.5938 45.8125L91.5938 69.2188L82.375 69.2188L82.375 18.375C82.3906 18.0902 82.4688 17.8196 82.4688 17.5312C82.4688 8.30434 74.3811 0.8125 64.4062 0.8125Z" fill="#46b94b" fill-rule="nonzero" opacity="1" stroke="none"/>
<path d="M64.3433 0.764975C64.1301 0.764975 63.9298 0.820682 63.7183 0.827475L63.7183 193.14L82.3121 193.14L82.3121 105.984L104.656 105.984L105.406 105.984L105.406 105.859C112.511 105.186 118.156 95.2878 118.156 83.0775C118.156 82.6286 118.077 82.2075 118.062 81.765L118.156 81.765L118.156 46.9525C118.159 46.8141 118.187 46.6854 118.187 46.5462C118.187 46.407 118.159 46.2783 118.156 46.14L118.156 45.765L118.125 45.765C117.781 37.2269 112.033 30.4212 104.906 30.4212C97.7783 30.4212 91.9991 37.2269 91.6558 45.765L91.5308 45.765L91.5308 69.1712L82.3121 69.1712L82.3121 18.3275C82.3277 18.0427 82.4058 17.7721 82.4058 17.4837C82.4058 8.25681 74.3181 0.764977 64.3433 0.764975Z" fill="#000000" fill-rule="nonzero" opacity="0.2" stroke="none"/>
<path d="M32.8452 187.491L95.1292 187.491C98.4152 187.491 101.079 189.936 101.079 192.952L101.079 194.723C101.079 197.738 98.4152 200.183 95.1292 200.183L32.8452 200.183C29.5593 200.183 26.8955 197.738 26.8955 194.723L26.8955 192.952C26.8955 189.936 29.5593 187.491 32.8452 187.491Z" fill="#a27100" fill-rule="nonzero" opacity="1" stroke="#c6b99e" stroke-linecap="butt" stroke-linejoin="round" stroke-width="1.25339"/>
<path d="M124.859 13.4429C122.147 13.4429 119.761 14.4651 117.765 15.9429C115.964 14.8776 113.971 14.1304 111.703 14.1304C105.163 14.1304 99.8588 19.2368 99.8588 25.5367C99.8588 25.7921 99.9979 26.0042 100.015 26.2554C96.4912 28.2315 94.015 31.7631 94.015 35.9742C94.015 40.1985 96.5041 43.7214 100.046 45.6929C100.796 51.2976 105.587 55.6929 111.609 55.6929C114.102 55.6929 116.263 54.7734 118.171 53.5054C120.158 54.9572 122.485 55.9742 125.171 55.9742C131.711 55.9742 137.015 50.8677 137.015 44.5679C137.015 44.5466 137.015 44.5267 137.015 44.5054C140.766 42.5914 143.39 38.8792 143.39 34.5054C143.39 29.9545 140.579 26.1171 136.578 24.2867C136.255 18.2641 131.19 13.4429 124.859 13.4429ZM118.796 34.4117C119.011 34.5389 119.197 34.7038 119.421 34.8179C119.134 34.9764 118.88 35.1687 118.609 35.3492C118.407 35.202 118.195 35.0776 117.984 34.9429C118.26 34.7712 118.537 34.6042 118.796 34.4117Z" fill="#ff641a" fill-rule="nonzero" opacity="1" stroke="none"/>
<path d="M107.889 35.3547C107.889 29.695 112.472 25.1069 118.126 25.1069C123.78 25.1069 128.363 29.695 128.363 35.3547C128.363 41.0143 123.78 45.6024 118.126 45.6024C112.472 45.6024 107.889 41.0143 107.889 35.3547Z" fill="#ffd92d" fill-rule="nonzero" opacity="1" stroke="none"/>
<path d="M111.821 24.9376C111.821 24.6625 112.015 24.4395 112.255 24.4395C112.494 24.4395 112.689 24.6625 112.689 24.9376C112.689 25.2126 112.494 25.4356 112.255 25.4356C112.015 25.4356 111.821 25.2126 111.821 24.9376Z" fill="#ff641a" fill-rule="nonzero" opacity="1" stroke="none"/>
<path d="M105.941 22.0296C105.941 21.5505 106.164 21.162 106.439 21.162C106.714 21.162 106.937 21.5505 106.937 22.0296C106.937 22.5088 106.714 22.8972 106.439 22.8972C106.164 22.8972 105.941 22.5088 105.941 22.0296Z" fill="#ff641a" fill-rule="nonzero" opacity="1" stroke="none"/>
<path d="M124.819 13.324C122.264 13.324 120.023 14.2645 118.1 15.6052L118.1 53.4177C118.112 53.41 118.12 53.3942 118.131 53.3865C120.118 54.8383 122.446 55.8552 125.131 55.8552C131.671 55.8552 136.975 50.7488 136.975 44.449C136.975 44.4277 136.975 44.4078 136.975 44.3865C140.726 42.4725 143.35 38.7603 143.35 34.3865C143.35 29.8355 140.539 25.9982 136.538 24.1677C136.216 18.1452 131.151 13.324 124.819 13.324Z" fill="#fd0000" fill-rule="nonzero" opacity="0.4" stroke="none"/>
<path d="M63.6892 186.87L63.6892 200.704L95.3277 200.704C98.8149 200.704 101.662 198.029 101.662 194.741L101.662 192.799C101.662 189.511 98.8149 186.87 95.3277 186.87L63.6892 186.87Z" fill="#000000" fill-rule="nonzero" opacity="0.2" stroke="none"/>
<path d="M119.281 34.9688L117.406 36.4688L148.281 83.4375C144.738 84.903 142.203 86.8411 145.5 92.25C154.7 107.342 167.488 113.465 170.469 114.75L170.469 149.812L162.844 195.062C162.844 195.062 162.771 197.811 164.781 199C166.614 200.084 170.436 199.671 172.375 198.969C174.208 198.304 174.371 197.951 176.031 192.125C181.025 174.601 182.438 158.278 182.625 156.062L187 156.062C188.18 160.195 192.508 173.548 200.25 174.625C200.25 174.625 204.629 175.521 206.844 174.156C214.903 169.19 220.575 166.885 218.062 158.719C216.909 154.969 211.063 153.373 209.156 155.281C206.264 158.176 205.244 159.336 204.094 160.625C200.329 161.859 198.825 152.516 197.781 150.781L197.781 117.656C198.098 117.878 206.978 124.155 212.156 134.125C214.249 138.154 225.517 133.172 223 126.406C221.937 123.55 217.724 117.183 212.312 112.875C204.908 106.98 200.33 102.168 190.969 102.719C186.686 102.971 184.43 103.47 183.062 103.938C182.791 103.968 182.728 103.875 182.344 103.969C174.056 105.992 162.051 94.2534 159.281 89.3438C157.573 86.3153 154.772 80.9787 151.156 82.3438C150.954 82.4201 150.765 82.4875 150.562 82.5625L119.281 34.9688ZM182.75 79.3438C176.531 79.3438 171.469 83.9416 171.469 89.625C171.469 95.3084 176.531 99.9062 182.75 99.9062C188.969 99.9063 194 95.3084 194 89.625C194 83.9416 188.969 79.3438 182.75 79.3438Z" fill="#000000" fill-rule="nonzero" opacity="1" stroke="none"/>
</g>
</svg>
